<?xml version="1.0" encoding="UTF-8" standalone="no"?>
<!-- Created with Inkscape (http://www.inkscape.org/) -->

<svg
   width="6mm"
   height="6mm"
   viewBox="0 0 6 6"
   version="1.1"
   id="svg1"
   inkscape:version="1.4 (86a8ad7, 2024-10-11)"
   sodipodi:docname="Marcador Mueble Redtech.svg"
   xmlns:inkscape="http://www.inkscape.org/namespaces/inkscape"
   xmlns:sodipodi="http://sodipodi.sourceforge.net/DTD/sodipodi-0.dtd"
   xmlns="http://www.w3.org/2000/svg"
   xmlns:svg="http://www.w3.org/2000/svg">
  <sodipodi:namedview
     id="namedview1"
     pagecolor="#ffffff"
     bordercolor="#000000"
     borderopacity="0.25"
     inkscape:showpageshadow="2"
     inkscape:pageopacity="0.0"
     inkscape:pagecheckerboard="0"
     inkscape:deskcolor="#d1d1d1"
     inkscape:document-units="mm"
     inkscape:zoom="4.0668163"
     inkscape:cx="32.334876"
     inkscape:cy="-70.448227"
     inkscape:window-width="2560"
     inkscape:window-height="1009"
     inkscape:window-x="-8"
     inkscape:window-y="-8"
     inkscape:window-maximized="1"
     inkscape:current-layer="layer1" />
  <defs
     id="defs1" />
  <g
     inkscape:label="Capa 1"
     inkscape:groupmode="layer"
     id="layer1">
    <path
       style="fill:#00d78b;fill-opacity:1;stroke:#001f4b;stroke-width:0.20092;stroke-dasharray:none;stroke-opacity:1"
       d="m 3.0002949,0.10046 c -1.596585,5.3e-6 -2.8998296,1.30325 -2.8998349,2.8998349 0,1.5965877 1.3032473,2.8992449 2.8998349,2.8992449 1.5965903,0 2.8992449,-1.3026546 2.8992449,-2.8992449 0,-1.5965876 -1.3026572,-2.8998349 -2.8992449,-2.8998349 z m 0,0.8000999 c 1.1643186,-2.6e-6 2.0997377,0.9354191 2.0997377,2.099735 0,1.1643187 -0.9354191,2.0997377 -2.0997377,2.0997377 -1.1643159,0 -2.0997376,-0.935419 -2.099735,-2.0997377 0,-1.1643159 0.9354191,-2.099735 2.099735,-2.099735 z"
       id="circle4" />
    <ellipse
       style="fill:#00d78b;fill-opacity:1;stroke:#001f4b;stroke-width:0.20092;stroke-dasharray:none;stroke-opacity:1"
       id="path22"
       cx="3.0001817"
       cy="3.0130737"
       rx="0.83464646"
       ry="0.84755343" />
  </g>
</svg>
